<svg xmlns="http://www.w3.org/2000/svg" xmlns:svgjs="http://svgjs.com/svgjs" xmlns:xlink="http://www.w3.org/1999/xlink" id="SvgjsSvg1001" width="288" height="288" version="1.1"><g id="SvgjsG1008"><svg xmlns="http://www.w3.org/2000/svg" width="288" height="288" fill="none" viewBox="0 0 500 500"><g clip-path="url(#a)"><path fill="url(#b)" fill-rule="evenodd" d="M244.92 91.8026C242.563 92.8 240.127 95.3058 238.975 97.9203C238.148 99.7974 238.047 110.921 238.047 200.233V291.5C253.451 307.434 255.38 314.041 260.895 332.931C261.092 333.605 261.293 334.294 261.5 335C261.5 332.817 261.529 330.133 261.576 325.914C261.667 317.57 261.824 303.226 261.95 274.9L262.252 206.466L269.831 210.104C287.18 218.431 299.733 229.913 307.839 244.87C311.156 250.989 314.922 260.875 315.495 264.965C315.81 267.21 315.618 267.72 313.405 270.551C308.128 277.297 307.41 280.777 310.234 285.901C311.581 288.345 312.505 289.221 315.084 290.497C319.044 292.458 321.787 292.496 325.709 290.643C332.257 287.551 343.084 271.015 348.904 255.221C353.714 242.167 356.04 230.003 355.993 218.158C355.946 206.526 353.279 196.091 347.604 185.331C343.707 177.944 339.498 172.434 333.074 166.313C326.272 159.832 320.635 155.681 304.448 145.236C297.731 140.9 290.733 136.209 288.897 134.811C283.246 130.505 276.977 124.375 272.707 118.982C265.333 109.665 263.445 106.345 261.398 99.0968C260.019 94.2127 255.411 90.9836 249.874 91.0221C248.135 91.0345 245.906 91.3857 244.92 91.8026ZM184 409C217.137 409 244 382.137 244 349C244 315.863 217.137 289 184 289C150.863 289 124 315.863 124 349C124 382.137 150.863 409 184 409Z" clip-rule="evenodd"/></g><defs><linearGradient id="b" x1="311" x2="185.5" y1="121" y2="403.5" gradientUnits="userSpaceOnUse"><stop class="stopColorFF324D svgShape" stop-color="#000"/><stop class="stopColorC849BA svgShape" offset=".82" stop-color="#888"/></linearGradient><clipPath id="a"><rect width="306" height="318" fill="#fff" class="colorfff svgShape" transform="translate(97 91)"/></clipPath></defs></svg></g></svg>